<?xml version="1.0" encoding="UTF-8"?>
<!DOCTYPE svg PUBLIC "-//W3C//DTD SVG 1.1//EN" "http://www.w3.org/Graphics/SVG/1.1/DTD/svg11.dtd">
<svg xmlns="http://www.w3.org/2000/svg" version="1.1" width="512px" height="512px" style="shape-rendering:geometricPrecision; text-rendering:geometricPrecision; image-rendering:optimizeQuality; fill-rule:evenodd; clip-rule:evenodd" xmlns:xlink="http://www.w3.org/1999/xlink">
<g><path style="opacity:0.991" fill="#ef5227" d="M 429.5,101.5 C 453.194,101.029 466.527,112.529 469.5,136C 469.185,143.947 466.685,151.114 462,157.5C 380.5,239 299,320.5 217.5,402C 202.282,412.261 187.282,411.927 172.5,401C 131.667,360.167 90.8333,319.333 50,278.5C 38.6667,263.167 38.6667,247.833 50,232.5C 60.5573,222.069 73.0573,218.902 87.5,223C 91.3998,224.565 95.0665,226.565 98.5,229C 131,261.5 163.5,294 196,326.5C 268.833,253.667 341.667,180.833 414.5,108C 419.142,104.74 424.142,102.573 429.5,101.5 Z"/></g>
</svg>
